<svg xmlns="http://www.w3.org/2000/svg" width="1024" height="293" viewBox="0 0 2048 585">
<g fill="#FF6B35" fill-rule="evenodd" stroke="none">
<path d="M 1957.00,537.50 661.00,537.50 649.00,534.50 638.00,528.50 627.50,518.00 621.50,507.00 618.50,494.00 618.50,91.00 621.50,78.00 626.50,68.00 635.00,58.50 648.00,50.50 658.00,47.50 1960.00,47.50 1970.00,50.50 1979.00,55.50 1988.50,64.00 1996.50,78.00 1999.50,90.00 1999.50,495.00 1996.50,507.00 1990.50,518.00 1977.00,530.50 1957.00,537.50 Z"/>
<path d="M 381.00,532.50 351.00,532.50 325.00,529.50 284.00,518.50 241.00,497.50 209.00,473.50 196.50,462.00 177.50,440.00 160.50,415.00 150.50,396.00 135.50,355.00 128.50,311.00 128.50,278.00 130.50,259.00 140.50,218.00 147.50,200.00 162.50,171.00 189.50,135.00 223.00,104.50 262.00,80.50 301.00,65.50 334.00,58.50 356.00,56.50 398.00,58.50 420.00,62.50 444.00,69.50 482.00,86.50 504.00,100.50 524.00,116.50 544.50,137.00 557.50,153.00 576.50,183.00 594.50,227.00 603.50,274.00 602.50,325.00 594.50,363.00 579.50,401.00 563.50,428.00 546.50,450.00 532.00,465.50 506.00,487.50 488.00,499.50 463.00,512.50 426.00,525.50 381.00,532.50 Z"/>
<path d="M 187.50,295.00 188.50,276.00 194.50,246.00 205.50,217.00 222.50,189.00 251.00,158.50 280.00,138.50 304.00,127.50 323.00,121.50 361.00,116.50 361.00,65.50 335.00,67.50 302.00,74.50 260.00,91.50 234.00,107.50 215.00,122.50 194.50,143.00 181.50,159.00 164.50,186.00 153.50,209.00 146.50,229.00 139.50,260.00 137.50,295.00 187.50,295.00 Z"/>
<path d="M 491.50,165.00 523.50,132.00 523.50,129.00 510.00,116.50 476.00,93.50 448.00,80.50 409.00,69.50 370.50,66.00 371.00,116.50 400.00,119.50 431.00,128.50 456.00,140.50 475.00,153.50 487.00,164.50 491.50,165.00 Z"/>
<path d="M 826.50,341.00 907.50,119.00 873.50,119.00 811.00,307.50 747.50,119.00 715.00,118.50 715.50,125.00 794.50,341.00 826.50,341.00 Z"/>
<path d="M 241.50,295.00 244.50,268.00 248.50,254.00 256.50,236.00 273.50,212.00 294.00,193.50 317.00,180.50 338.00,173.50 361.50,170.00 361.00,125.50 324.00,130.50 308.00,135.50 286.00,145.50 267.00,157.50 250.00,171.50 226.50,199.00 210.50,228.00 203.50,247.00 197.50,277.00 197.50,295.00 241.50,295.00 Z"/>
<path d="M 454.50,204.00 482.50,175.00 482.50,172.00 480.00,169.50 455.00,150.50 427.00,136.50 399.00,128.50 370.50,126.00 371.00,170.50 395.00,173.50 418.00,181.50 437.00,192.50 451.00,204.50 454.50,204.00 Z"/>
<path d="M 1392.50,341.00 1393.50,228.00 1390.50,209.00 1383.50,194.00 1374.00,184.50 1361.00,177.50 1336.00,173.50 1322.00,175.50 1306.00,182.50 1296.00,190.50 1287.00,201.50 1286.00,178.50 1262.00,178.50 1260.50,180.00 1260.50,340.00 1262.00,341.50 1288.50,341.00 1288.50,242.00 1290.50,232.00 1296.50,218.00 1307.00,206.50 1319.00,200.50 1332.00,198.50 1341.00,199.50 1352.00,203.50 1359.50,211.00 1364.50,224.00 1365.50,340.00 1367.00,341.50 1392.50,341.00 Z"/>
<path d="M 1813.50,345.00 1823.00,343.50 1842.00,335.50 1860.00,320.50 1861.50,329.00 1865.50,336.00 1875.00,342.50 1891.00,344.50 1904.50,341.00 1904.50,322.00 1894.00,322.50 1889.00,320.50 1886.50,317.00 1886.50,214.00 1884.50,205.00 1878.50,194.00 1871.00,186.50 1861.00,180.50 1845.00,175.50 1822.00,173.50 1804.00,175.50 1790.00,179.50 1771.50,192.00 1762.50,207.00 1759.50,218.00 1760.00,228.50 1784.00,228.50 1787.50,215.00 1794.00,205.50 1804.00,199.50 1819.00,196.50 1839.00,198.50 1847.00,201.50 1857.50,212.00 1859.50,228.00 1858.50,233.00 1854.00,239.50 1847.00,242.50 1793.00,248.50 1778.00,253.50 1761.50,266.00 1753.50,280.00 1751.50,287.00 1751.50,308.00 1754.50,318.00 1761.50,329.00 1771.00,337.50 1784.00,343.50 1793.00,345.50 1813.50,345.00 Z"/>
<path d="M 1013.50,345.00 1033.00,340.50 1051.00,328.50 1063.50,313.00 1070.50,298.00 1071.50,290.00 1045.00,289.50 1039.50,303.00 1028.00,314.50 1015.00,320.50 993.00,321.50 976.00,315.50 963.50,303.00 956.50,284.00 955.50,270.00 957.00,268.50 1073.00,268.50 1072.50,242.00 1063.50,211.00 1048.00,189.50 1037.00,181.50 1022.00,175.50 991.00,174.50 972.00,179.50 962.00,184.50 942.50,203.00 935.50,215.00 928.50,236.00 926.50,248.00 926.50,277.00 933.50,304.00 941.50,318.00 953.00,330.50 978.00,343.50 989.00,345.50 1013.50,345.00 Z"/>
<path d="M 1512.50,345.00 1532.00,340.50 1549.00,329.50 1562.50,313.00 1569.50,298.00 1570.50,290.00 1544.00,289.50 1538.50,303.00 1524.00,316.50 1509.00,321.50 1492.00,321.50 1475.00,315.50 1465.50,307.00 1456.50,288.00 1454.50,270.00 1456.00,268.50 1573.00,268.50 1571.50,242.00 1562.50,211.00 1555.50,199.00 1546.00,188.50 1536.00,181.50 1521.00,175.50 1490.00,174.50 1480.00,176.50 1463.00,183.50 1452.00,191.50 1438.50,208.00 1427.50,236.00 1425.50,249.00 1425.50,277.00 1427.50,289.00 1433.50,306.00 1440.50,318.00 1452.00,330.50 1477.00,343.50 1488.00,345.50 1512.50,345.00 Z"/>
<path d="M 1236.50,341.00 1236.50,338.00 1181.50,258.00 1233.50,183.00 1234.50,179.00 1203.00,178.50 1165.00,235.50 1127.00,178.50 1094.00,178.50 1094.50,183.00 1146.50,258.00 1102.50,321.00 1090.50,341.00 1123.00,341.50 1163.00,280.50 1204.00,341.50 1236.50,341.00 Z"/>
<path d="M 1735.50,341.00 1735.50,338.00 1680.50,258.00 1726.50,192.00 1733.50,179.00 1702.00,178.50 1664.00,235.50 1626.00,178.50 1593.00,178.50 1592.50,181.00 1645.50,258.00 1589.50,341.00 1623.00,341.50 1662.00,280.50 1703.00,341.50 1735.50,341.00 Z"/>
<path d="M 361.50,295.00 361.50,180.00 359.00,179.50 332.00,184.50 309.00,194.50 293.00,205.50 277.50,221.00 264.50,240.00 255.50,261.00 251.50,281.00 251.50,295.00 361.50,295.00 Z"/>
<path d="M 373.50,288.00 438.50,221.00 444.50,214.00 444.50,211.00 434.00,201.50 411.00,188.50 394.00,182.50 371.00,179.50 370.50,288.00 373.50,288.00 Z"/>
<path d="M 1045.00,246.50 956.00,246.50 955.50,243.00 960.50,225.00 965.50,217.00 975.00,207.50 988.00,200.50 1003.00,198.50 1021.00,202.50 1034.50,213.00 1043.50,232.00 1045.00,246.50 Z"/>
<path d="M 1544.00,246.50 1455.00,246.50 1454.50,243.00 1456.50,233.00 1461.50,222.00 1474.00,207.50 1487.00,200.50 1502.00,198.50 1520.00,202.50 1533.50,213.00 1541.50,228.00 1544.00,246.50 Z"/>
<path d="M 1818.00,322.50 1797.00,321.50 1790.00,318.50 1783.50,312.00 1779.50,299.00 1779.50,291.00 1782.50,283.00 1790.00,275.50 1802.00,270.50 1839.00,265.50 1858.00,259.50 1858.50,291.00 1853.50,302.00 1840.00,314.50 1818.00,322.50 Z"/>
<path d="M 361.50,523.00 361.00,472.50 335.00,470.50 305.00,462.50 281.00,451.50 258.00,436.50 234.50,415.00 211.50,384.00 196.50,350.00 190.50,326.00 188.50,305.00 187.00,303.50 137.50,304.00 139.50,330.00 143.50,350.00 158.50,392.00 180.50,429.00 207.00,459.50 239.00,485.50 276.00,505.50 316.00,518.50 338.00,522.50 361.50,523.00 Z"/>
<path d="M 361.50,463.00 361.00,418.50 336.00,415.50 318.00,409.50 304.00,402.50 279.00,383.50 263.50,365.00 252.50,345.00 246.50,329.00 242.00,303.50 197.50,304.00 201.50,335.00 210.50,362.00 227.50,392.00 256.00,423.50 280.00,440.50 307.00,453.50 336.00,461.50 361.50,463.00 Z"/>
<path d="M 361.50,409.00 361.00,303.50 251.50,304.00 253.50,320.00 259.50,339.00 272.50,362.00 288.00,379.50 305.00,392.50 322.00,401.50 346.00,408.50 361.50,409.00 Z"/>
<path d="M 379.50,409.00 399.00,405.50 419.00,397.50 436.00,386.50 453.50,370.00 464.50,355.00 473.50,337.00 479.50,317.00 480.00,303.50 372.00,303.50 370.50,305.00 370.50,409.00 379.50,409.00 Z"/>
<path d="M 382.50,463.00 413.00,457.50 449.00,442.50 470.00,428.50 494.50,405.00 509.50,385.00 524.50,355.00 533.50,322.00 534.00,303.50 491.00,303.50 486.50,327.00 479.50,346.00 467.50,367.00 450.00,386.50 430.00,401.50 414.00,409.50 392.00,416.50 370.50,419.00 370.50,463.00 382.50,463.00 Z"/>
<path d="M 382.50,523.00 416.00,518.50 435.00,513.50 461.00,503.50 496.00,483.50 520.00,464.50 535.50,449.00 557.50,421.00 576.50,386.00 583.50,368.00 591.50,338.00 594.50,316.00 594.00,303.50 545.00,303.50 543.50,305.00 542.50,322.00 538.50,341.00 525.50,375.00 505.50,406.00 477.00,434.50 453.00,450.50 427.00,462.50 397.00,470.50 370.50,473.00 370.50,523.00 382.50,523.00 Z"/>
</g>
<g fill="white" fill-rule="evenodd" stroke="none">
<path d="M 1961.50,537.00 1975.00,532.50 1990.50,519.00 1996.50,509.00 1999.50,498.00 1999.50,87.00 1996.50,76.00 1987.50,62.00 1969.00,49.50 1957.00,46.50 660.00,46.50 649.00,49.50 633.00,59.50 624.50,70.00 620.50,79.00 618.50,85.00 618.50,499.00 622.50,511.00 627.50,519.00 637.00,528.50 647.00,534.50 657.00,537.50 1961.50,537.00 Z"/>
<path d="M 375.50,533.00 416.00,528.50 447.00,519.50 471.00,509.50 511.00,484.50 546.50,451.00 569.50,420.00 584.50,392.00 591.50,374.00 597.50,355.00 602.50,330.00 604.50,311.00 604.50,278.00 597.50,235.00 580.50,189.00 565.50,163.00 554.50,148.00 518.00,110.50 498.00,95.50 478.00,83.50 437.00,66.50 395.00,57.50 349.00,56.50 314.00,61.50 295.00,66.50 269.00,76.50 230.00,98.50 213.00,111.50 191.50,132.00 162.50,170.00 141.50,213.00 130.50,255.00 127.50,304.00 132.50,345.00 147.50,391.00 161.50,418.00 173.50,436.00 207.00,472.50 228.00,489.50 245.00,500.50 285.00,519.50 327.00,530.50 358.00,533.50 375.50,533.00 Z"/>
<path d="M 187.00,294.50 137.50,294.00 140.50,257.00 146.50,231.00 157.50,201.00 181.50,160.00 210.00,127.50 231.00,110.50 256.00,94.50 279.00,83.50 308.00,73.50 333.00,68.50 361.00,66.50 361.50,115.00 360.00,116.50 324.00,120.50 284.00,135.50 250.00,158.50 221.50,189.00 208.50,210.00 195.50,240.00 189.50,264.00 187.00,294.50 Z"/>
<path d="M 490.00,165.50 462.00,143.50 433.00,128.50 398.00,118.50 372.00,116.50 371.50,67.00 383.00,66.50 406.00,69.50 438.00,77.50 478.00,95.50 514.00,120.50 524.50,130.00 490.00,165.50 Z"/>
<path d="M 826.00,340.50 794.50,340.00 714.50,121.00 715.00,118.50 746.00,118.50 747.50,120.00 810.00,306.50 813.50,304.00 874.50,119.00 907.50,119.00 826.00,340.50 Z"/>
<path d="M 241.00,294.50 197.50,294.00 198.50,273.00 204.50,246.00 211.50,227.00 226.50,200.00 252.00,170.50 268.00,157.50 289.00,144.50 323.00,131.50 342.00,127.50 361.00,126.50 361.50,169.00 360.00,170.50 335.00,173.50 315.00,180.50 293.00,193.50 273.50,211.00 257.50,233.00 247.50,255.00 243.50,269.00 241.00,294.50 Z"/>
<path d="M 453.00,204.50 438.00,192.50 417.00,180.50 397.00,173.50 372.00,170.50 371.50,127.00 391.00,127.50 425.00,136.50 457.00,152.50 478.00,168.50 482.50,174.00 453.00,204.50 Z"/>
<path d="M 1016.00,344.50 986.00,344.50 974.00,341.50 958.00,333.50 944.50,321.00 936.50,309.00 930.50,294.00 927.50,280.00 927.50,245.00 932.50,224.00 939.50,209.00 946.50,199.00 959.00,187.50 969.00,181.50 983.00,176.50 996.00,174.50 1018.00,175.50 1029.00,178.50 1042.00,185.50 1058.50,203.00 1065.50,217.00 1071.50,239.00 1073.00,268.50 955.50,269.00 955.50,282.00 961.50,301.00 975.00,315.50 989.00,321.50 1007.00,322.50 1026.00,316.50 1039.50,304.00 1045.00,290.50 1071.50,291.00 1064.50,310.00 1056.50,322.00 1049.00,329.50 1031.00,340.50 1016.00,344.50 Z"/>
<path d="M 1392.00,340.50 1366.50,340.00 1365.50,225.00 1361.50,213.00 1353.00,203.50 1338.00,198.50 1326.00,198.50 1315.00,201.50 1306.00,206.50 1294.50,220.00 1289.50,233.00 1287.50,245.00 1287.50,340.00 1261.50,340.00 1262.00,179.50 1286.00,179.50 1287.00,200.50 1289.00,200.50 1298.00,189.50 1309.00,181.50 1330.00,174.50 1344.00,174.50 1359.00,177.50 1373.00,184.50 1382.50,194.00 1388.50,205.00 1392.50,223.00 1392.00,340.50 Z"/>
<path d="M 1515.00,344.50 1485.00,344.50 1473.00,341.50 1457.00,333.50 1444.50,322.00 1437.50,312.00 1430.50,297.00 1426.50,280.00 1426.50,245.00 1432.50,222.00 1440.50,206.00 1453.00,191.50 1464.00,183.50 1479.00,177.50 1495.00,174.50 1522.00,176.50 1535.00,181.50 1545.00,188.50 1555.50,200.00 1563.50,214.00 1571.50,247.00 1572.00,268.50 1454.50,269.00 1455.50,286.00 1462.50,304.00 1474.00,315.50 1488.00,321.50 1506.00,322.50 1525.00,316.50 1538.50,304.00 1544.00,290.50 1570.50,291.00 1563.50,310.00 1555.50,322.00 1548.00,329.50 1535.00,338.50 1515.00,344.50 Z"/>
<path d="M 1816.00,344.50 1790.00,344.50 1778.00,340.50 1768.00,334.50 1760.50,327.00 1754.50,316.00 1751.50,303.00 1751.50,292.00 1754.50,279.00 1760.50,268.00 1777.00,254.50 1796.00,248.50 1845.00,243.50 1855.50,239.00 1859.50,232.00 1860.50,226.00 1858.50,213.00 1851.00,203.50 1837.00,197.50 1815.00,196.50 1802.00,199.50 1789.50,210.00 1783.00,227.50 1759.50,227.00 1763.50,206.00 1771.50,193.00 1780.00,185.50 1802.00,176.50 1834.00,174.50 1854.00,178.50 1865.00,183.50 1878.50,195.00 1883.50,204.00 1885.50,212.00 1885.50,315.00 1886.50,318.00 1892.00,322.50 1903.50,322.00 1903.50,340.00 1893.00,343.50 1884.00,343.50 1872.00,340.50 1862.50,330.00 1861.50,322.00 1858.00,321.50 1841.00,335.50 1816.00,344.50 Z"/>
<path d="M 1236.00,340.50 1204.00,340.50 1164.00,280.50 1161.50,281.00 1123.00,340.50 1090.50,340.00 1146.50,259.00 1146.50,256.00 1094.00,179.50 1127.00,179.50 1164.00,234.50 1167.50,233.00 1203.00,179.50 1234.50,180.00 1182.50,254.00 1181.50,259.00 1232.50,333.00 1236.00,340.50 Z"/>
<path d="M 1735.00,340.50 1703.00,340.50 1663.00,280.50 1660.50,281.00 1623.00,340.50 1589.50,340.00 1645.50,259.00 1645.50,256.00 1593.00,179.50 1626.00,179.50 1663.00,235.50 1665.50,235.00 1702.00,179.50 1733.50,180.00 1688.50,244.00 1680.50,256.00 1680.50,259.00 1725.50,324.00 1735.00,340.50 Z"/>
<path d="M 361.00,294.50 251.50,294.00 252.50,278.00 259.50,252.00 267.50,236.00 282.50,216.00 298.00,202.50 320.00,189.50 337.00,183.50 355.00,180.50 361.50,181.00 361.00,294.50 Z"/>
<path d="M 372.00,289.50 371.50,181.00 377.00,180.50 395.00,183.50 412.00,189.50 434.00,202.50 445.50,212.00 372.00,289.50 Z"/>
<path d="M 1045.50,247.00 1044.50,233.00 1037.50,216.00 1026.00,204.50 1007.00,198.50 989.00,199.50 975.00,206.50 961.50,222.00 955.50,238.00 956.00,247.50 1045.50,247.00 Z"/>
<path d="M 1544.50,247.00 1542.50,229.00 1534.50,213.00 1525.00,204.50 1506.00,198.50 1489.00,199.50 1472.00,208.50 1460.50,222.00 1454.50,240.00 1455.00,247.50 1544.50,247.00 Z"/>
<path d="M 1815.50,323.00 1836.00,317.50 1844.00,312.50 1853.50,303.00 1859.50,289.00 1859.00,259.50 1841.00,264.50 1803.00,269.50 1792.00,273.50 1781.50,283.00 1779.50,288.00 1779.50,304.00 1783.50,313.00 1795.00,321.50 1802.00,323.50 1815.50,323.00 Z"/>
<path d="M 361.00,523.50 324.00,519.50 296.00,512.50 280.00,506.50 245.00,488.50 212.00,463.50 197.50,449.00 178.50,425.00 155.50,384.00 142.50,343.00 138.50,305.00 187.50,305.00 191.50,335.00 197.50,355.00 206.50,376.00 214.50,390.00 234.50,416.00 261.00,439.50 278.00,450.50 306.00,463.50 332.00,470.50 361.00,473.50 361.00,523.50 Z"/>
<path d="M 361.00,463.50 334.00,460.50 306.00,452.50 283.00,441.50 256.00,422.50 230.50,395.00 213.50,367.00 200.50,328.00 198.50,305.00 241.00,304.50 245.50,328.00 255.50,353.00 270.50,375.00 287.00,391.50 316.00,409.50 337.00,416.50 361.00,419.50 361.00,463.50 Z"/>
<path d="M 361.00,409.50 340.00,406.50 321.00,400.50 303.00,390.50 290.00,380.50 272.50,361.00 261.50,342.00 254.50,322.00 252.50,305.00 361.00,304.50 361.00,409.50 Z"/>
<path d="M 373.00,409.50 371.50,409.00 372.00,304.50 480.50,305.00 476.50,326.00 469.50,345.00 458.50,363.00 440.00,382.50 428.00,391.50 411.00,400.50 393.00,406.50 373.00,409.50 Z"/>
<path d="M 373.00,463.50 371.50,463.00 372.00,419.50 395.00,416.50 416.00,409.50 428.00,403.50 452.00,385.50 467.50,368.00 479.50,348.00 487.50,326.00 491.00,304.50 534.50,305.00 530.50,334.00 521.50,361.00 502.50,394.00 482.00,417.50 453.00,439.50 431.00,450.50 408.00,458.50 373.00,463.50 Z"/>
<path d="M 372.00,523.50 372.00,473.50 401.00,470.50 432.00,461.50 458.00,448.50 474.00,437.50 500.50,413.00 522.50,382.00 537.50,347.00 543.50,320.00 544.50,305.00 594.50,305.00 588.50,348.00 581.50,372.00 573.50,391.00 553.50,426.00 538.50,445.00 518.00,465.50 479.00,493.50 442.00,510.50 408.00,519.50 372.00,523.50 Z"/>
</g>
</svg>
